<mxfile host="app.diagrams.net" modified="2023-12-19T01:09:31.712Z" agent="Mozilla/5.0 (Windows NT 10.0; Win64; x64) AppleWebKit/537.36 (KHTML, like Gecko) Chrome/119.0.0.0 Safari/537.36" etag="Y9T-L-SMbloQppScjYEW" version="22.1.11" type="github">
  <diagram name="Page-1" id="5987fedf-629e-85c4-6858-42fee31821dd">
    <mxGraphModel dx="1408" dy="748" grid="1" gridSize="10" guides="1" tooltips="1" connect="1" arrows="1" fold="1" page="1" pageScale="1.5" pageWidth="1169" pageHeight="826" background="none" math="0" shadow="0">
      <root>
        <mxCell id="0" style=";html=1;" />
        <mxCell id="1" style=";html=1;" parent="0" />
        <mxCell id="2a5a01dd2e413fbf-1" value="" style="ellipse;whiteSpace=wrap;html=1;rounded=0;shadow=0;strokeWidth=1;fillColor=#dae8fc;fontSize=24;align=right;strokeColor=#6c8ebf;opacity=50;" parent="1" vertex="1">
          <mxGeometry x="312" y="359" width="500" height="230" as="geometry" />
        </mxCell>
        <mxCell id="2a5a01dd2e413fbf-2" value="" style="ellipse;whiteSpace=wrap;html=1;rounded=0;shadow=0;strokeWidth=1;fillColor=#d5e8d4;fontSize=24;align=right;strokeColor=#82b366;opacity=50;" parent="1" vertex="1">
          <mxGeometry x="212" y="439" width="330" height="490" as="geometry" />
        </mxCell>
        <mxCell id="2a5a01dd2e413fbf-3" value="" style="ellipse;whiteSpace=wrap;html=1;rounded=0;shadow=0;strokeWidth=1;fillColor=#ffe6cc;fontSize=24;align=right;strokeColor=#d79b00;opacity=50;" parent="1" vertex="1">
          <mxGeometry x="332" y="789" width="380" height="180" as="geometry" />
        </mxCell>
        <mxCell id="2a5a01dd2e413fbf-7" value="" style="ellipse;whiteSpace=wrap;html=1;rounded=0;shadow=0;strokeWidth=1;fillColor=#d5e8d4;fontSize=24;align=right;strokeColor=#82b366;opacity=50;" parent="1" vertex="1">
          <mxGeometry x="1217" y="539" width="350" height="390" as="geometry" />
        </mxCell>
        <mxCell id="2a5a01dd2e413fbf-8" value="" style="ellipse;whiteSpace=wrap;html=1;rounded=0;shadow=0;strokeWidth=1;fillColor=#ffe6cc;fontSize=24;align=right;strokeColor=#d79b00;opacity=50;" parent="1" vertex="1">
          <mxGeometry x="997" y="409" width="380" height="370" as="geometry" />
        </mxCell>
        <mxCell id="2a5a01dd2e413fbf-9" value="" style="ellipse;whiteSpace=wrap;html=1;rounded=0;shadow=0;strokeWidth=1;fillColor=#fff2cc;fontSize=24;align=right;strokeColor=#d6b656;opacity=50;" parent="1" vertex="1">
          <mxGeometry x="1227" y="269" width="340" height="360" as="geometry" />
        </mxCell>
        <mxCell id="2a5a01dd2e413fbf-43" style="edgeStyle=none;curved=1;html=1;endArrow=none;endFill=0;strokeColor=#0066CC;strokeWidth=4;fontSize=24;dashed=1;dashPattern=1 1;" parent="1" source="2a5a01dd2e413fbf-11" target="2a5a01dd2e413fbf-13" edge="1">
          <mxGeometry relative="1" as="geometry">
            <Array as="points">
              <mxPoint x="442" y="519" />
            </Array>
          </mxGeometry>
        </mxCell>
        <mxCell id="2a5a01dd2e413fbf-11" value="" style="whiteSpace=wrap;html=1;rounded=0;shadow=0;strokeWidth=1;fillColor=#FF6666;fontSize=24;align=right;strokeColor=#b85450;" parent="1" vertex="1">
          <mxGeometry x="562" y="449" width="20" height="20" as="geometry" />
        </mxCell>
        <mxCell id="2a5a01dd2e413fbf-12" value="" style="whiteSpace=wrap;html=1;rounded=0;shadow=0;strokeWidth=1;fillColor=#FF6666;fontSize=24;align=right;strokeColor=#b85450;" parent="1" vertex="1">
          <mxGeometry x="412" y="489" width="20" height="20" as="geometry" />
        </mxCell>
        <mxCell id="2a5a01dd2e413fbf-44" style="edgeStyle=none;curved=1;html=1;endArrow=none;endFill=0;strokeColor=#0066CC;strokeWidth=4;fontSize=24;dashed=1;dashPattern=1 1;" parent="1" source="2a5a01dd2e413fbf-13" target="2a5a01dd2e413fbf-15" edge="1">
          <mxGeometry relative="1" as="geometry">
            <Array as="points">
              <mxPoint x="502" y="739" />
            </Array>
          </mxGeometry>
        </mxCell>
        <mxCell id="2a5a01dd2e413fbf-13" value="" style="whiteSpace=wrap;html=1;rounded=0;shadow=0;strokeWidth=1;fillColor=#FF6666;fontSize=24;align=right;strokeColor=#b85450;" parent="1" vertex="1">
          <mxGeometry x="352" y="619" width="20" height="20" as="geometry" />
        </mxCell>
        <mxCell id="2a5a01dd2e413fbf-14" value="" style="whiteSpace=wrap;html=1;rounded=0;shadow=0;strokeWidth=1;fillColor=#FF6666;fontSize=24;align=right;strokeColor=#b85450;" parent="1" vertex="1">
          <mxGeometry x="402" y="849" width="20" height="20" as="geometry" />
        </mxCell>
        <mxCell id="2a5a01dd2e413fbf-35" style="edgeStyle=none;curved=1;html=1;endArrow=none;endFill=0;fontSize=24;strokeWidth=4;strokeColor=#00CC00;" parent="1" source="2a5a01dd2e413fbf-15" target="2a5a01dd2e413fbf-25" edge="1">
          <mxGeometry relative="1" as="geometry">
            <Array as="points">
              <mxPoint x="872" y="529" />
            </Array>
          </mxGeometry>
        </mxCell>
        <mxCell id="2a5a01dd2e413fbf-15" value="" style="whiteSpace=wrap;html=1;rounded=0;shadow=0;strokeWidth=1;fillColor=#FF6666;fontSize=24;align=right;strokeColor=#b85450;" parent="1" vertex="1">
          <mxGeometry x="542" y="889" width="20" height="20" as="geometry" />
        </mxCell>
        <mxCell id="2a5a01dd2e413fbf-36" style="edgeStyle=none;curved=1;html=1;endArrow=none;endFill=0;strokeColor=#FF0000;strokeWidth=4;fontSize=24;dashed=1;" parent="1" source="2a5a01dd2e413fbf-15" target="2a5a01dd2e413fbf-21" edge="1">
          <mxGeometry relative="1" as="geometry">
            <mxPoint x="1572" y="829" as="targetPoint" />
            <Array as="points">
              <mxPoint x="1092" y="909" />
            </Array>
            <mxPoint x="802" y="879" as="sourcePoint" />
          </mxGeometry>
        </mxCell>
        <mxCell id="2a5a01dd2e413fbf-39" style="edgeStyle=none;curved=1;html=1;endArrow=none;endFill=0;strokeColor=#FF0000;strokeWidth=4;fontSize=24;dashed=1;" parent="1" source="2a5a01dd2e413fbf-15" target="2a5a01dd2e413fbf-11" edge="1">
          <mxGeometry relative="1" as="geometry">
            <Array as="points">
              <mxPoint x="732" y="689" />
            </Array>
            <mxPoint x="1191.743589743589" y="1089" as="sourcePoint" />
          </mxGeometry>
        </mxCell>
        <mxCell id="2a5a01dd2e413fbf-37" style="edgeStyle=none;curved=1;html=1;endArrow=none;endFill=0;strokeColor=#FF0000;strokeWidth=4;fontSize=24;dashed=1;" parent="1" source="2a5a01dd2e413fbf-21" target="2a5a01dd2e413fbf-23" edge="1">
          <mxGeometry relative="1" as="geometry">
            <Array as="points">
              <mxPoint x="1422" y="649" />
            </Array>
          </mxGeometry>
        </mxCell>
        <mxCell id="2a5a01dd2e413fbf-21" value="" style="whiteSpace=wrap;html=1;rounded=0;shadow=0;strokeWidth=1;fillColor=#FF6666;fontSize=24;align=right;strokeColor=#b85450;" parent="1" vertex="1">
          <mxGeometry x="1397" y="734" width="20" height="20" as="geometry" />
        </mxCell>
        <mxCell id="2a5a01dd2e413fbf-22" value="" style="whiteSpace=wrap;html=1;rounded=0;shadow=0;strokeWidth=1;fillColor=#FF6666;fontSize=24;align=right;strokeColor=#b85450;" parent="1" vertex="1">
          <mxGeometry x="1272" y="674" width="20" height="20" as="geometry" />
        </mxCell>
        <mxCell id="2a5a01dd2e413fbf-40" style="edgeStyle=none;curved=1;html=1;entryX=0.5;entryY=0;endArrow=none;endFill=0;strokeColor=#0066CC;strokeWidth=4;fontSize=24;dashed=1;dashPattern=1 1;" parent="1" source="2a5a01dd2e413fbf-23" target="2a5a01dd2e413fbf-22" edge="1">
          <mxGeometry relative="1" as="geometry">
            <Array as="points">
              <mxPoint x="1282" y="629" />
            </Array>
          </mxGeometry>
        </mxCell>
        <mxCell id="2a5a01dd2e413fbf-41" style="edgeStyle=none;curved=1;html=1;endArrow=none;endFill=0;strokeColor=#0066CC;strokeWidth=4;fontSize=24;dashed=1;dashPattern=1 1;" parent="1" source="2a5a01dd2e413fbf-23" target="2a5a01dd2e413fbf-24" edge="1">
          <mxGeometry relative="1" as="geometry">
            <Array as="points">
              <mxPoint x="1382" y="569" />
            </Array>
          </mxGeometry>
        </mxCell>
        <mxCell id="2a5a01dd2e413fbf-42" style="edgeStyle=none;curved=1;html=1;endArrow=none;endFill=0;strokeColor=#0066CC;strokeWidth=4;fontSize=24;dashed=1;dashPattern=1 1;" parent="1" source="2a5a01dd2e413fbf-23" target="2a5a01dd2e413fbf-11" edge="1">
          <mxGeometry relative="1" as="geometry">
            <mxPoint x="862" y="569" as="targetPoint" />
            <Array as="points">
              <mxPoint x="982" y="449" />
            </Array>
          </mxGeometry>
        </mxCell>
        <mxCell id="2a5a01dd2e413fbf-23" value="" style="whiteSpace=wrap;html=1;rounded=0;shadow=0;strokeWidth=1;fillColor=#FF6666;fontSize=24;align=right;strokeColor=#b85450;" parent="1" vertex="1">
          <mxGeometry x="1332" y="574" width="20" height="20" as="geometry" />
        </mxCell>
        <mxCell id="2a5a01dd2e413fbf-24" value="" style="whiteSpace=wrap;html=1;rounded=0;shadow=0;strokeWidth=1;fillColor=#FF6666;fontSize=24;align=right;strokeColor=#b85450;" parent="1" vertex="1">
          <mxGeometry x="1417" y="574" width="20" height="20" as="geometry" />
        </mxCell>
        <mxCell id="2a5a01dd2e413fbf-25" value="" style="whiteSpace=wrap;html=1;rounded=0;shadow=0;strokeWidth=1;fillColor=#FF6666;fontSize=24;align=right;strokeColor=#b85450;" parent="1" vertex="1">
          <mxGeometry x="1282" y="489" width="20" height="20" as="geometry" />
        </mxCell>
        <mxCell id="2a5a01dd2e413fbf-26" value="" style="whiteSpace=wrap;html=1;rounded=0;shadow=0;strokeWidth=1;fillColor=#FF6666;fontSize=24;align=right;strokeColor=#b85450;" parent="1" vertex="1">
          <mxGeometry x="1397" y="419" width="20" height="20" as="geometry" />
        </mxCell>
        <mxCell id="2a5a01dd2e413fbf-27" value="" style="whiteSpace=wrap;html=1;rounded=0;shadow=0;strokeWidth=1;fillColor=#FF6666;fontSize=24;align=right;strokeColor=#b85450;" parent="1" vertex="1">
          <mxGeometry x="1132" y="584" width="20" height="20" as="geometry" />
        </mxCell>
        <mxCell id="2a5a01dd2e413fbf-29" value="" style="curved=1;endArrow=none;html=1;fontSize=24;fontColor=#000000;endFill=0;strokeWidth=4;strokeColor=#00CC00;" parent="1" source="2a5a01dd2e413fbf-11" target="2a5a01dd2e413fbf-15" edge="1">
          <mxGeometry width="50" height="50" relative="1" as="geometry">
            <mxPoint x="772" y="759" as="sourcePoint" />
            <mxPoint x="892" y="549" as="targetPoint" />
            <Array as="points">
              <mxPoint x="622" y="539" />
              <mxPoint x="622" y="799" />
            </Array>
          </mxGeometry>
        </mxCell>
        <mxCell id="2a5a01dd2e413fbf-31" value="" style="curved=1;endArrow=none;html=1;fontSize=24;endFill=0;strokeWidth=4;strokeColor=#00CC00;" parent="1" source="2a5a01dd2e413fbf-14" target="2a5a01dd2e413fbf-15" edge="1">
          <mxGeometry width="50" height="50" relative="1" as="geometry">
            <mxPoint x="392" y="1019" as="sourcePoint" />
            <mxPoint x="442" y="969" as="targetPoint" />
            <Array as="points">
              <mxPoint x="482" y="829" />
              <mxPoint x="532" y="855" />
            </Array>
          </mxGeometry>
        </mxCell>
        <mxCell id="2a5a01dd2e413fbf-47" value="A" style="text;html=1;strokeColor=none;fillColor=none;align=center;verticalAlign=middle;whiteSpace=wrap;rounded=0;shadow=0;fontSize=20;" parent="1" vertex="1">
          <mxGeometry x="522" y="329" width="80" height="30" as="geometry" />
        </mxCell>
        <mxCell id="2a5a01dd2e413fbf-48" value="B" style="text;html=1;strokeColor=none;fillColor=none;align=center;verticalAlign=middle;whiteSpace=wrap;rounded=0;shadow=0;fontSize=20;" parent="1" vertex="1">
          <mxGeometry x="152" y="669" width="80" height="30" as="geometry" />
        </mxCell>
        <mxCell id="2a5a01dd2e413fbf-49" value="C" style="text;html=1;strokeColor=none;fillColor=none;align=center;verticalAlign=middle;whiteSpace=wrap;rounded=0;shadow=0;fontSize=20;" parent="1" vertex="1">
          <mxGeometry x="502" y="969" width="80" height="30" as="geometry" />
        </mxCell>
        <mxCell id="2a5a01dd2e413fbf-54" value="D" style="text;html=1;strokeColor=none;fillColor=none;align=center;verticalAlign=middle;whiteSpace=wrap;rounded=0;shadow=0;fontSize=20;" parent="1" vertex="1">
          <mxGeometry x="1032" y="404" width="80" height="30" as="geometry" />
        </mxCell>
        <mxCell id="2a5a01dd2e413fbf-55" value="E" style="text;html=1;strokeColor=none;fillColor=none;align=center;verticalAlign=middle;whiteSpace=wrap;rounded=0;shadow=0;fontSize=20;" parent="1" vertex="1">
          <mxGeometry x="1367" y="239" width="80" height="30" as="geometry" />
        </mxCell>
        <mxCell id="2a5a01dd2e413fbf-56" value="F" style="text;html=1;strokeColor=none;fillColor=none;align=center;verticalAlign=middle;whiteSpace=wrap;rounded=0;shadow=0;fontSize=20;" parent="1" vertex="1">
          <mxGeometry x="1522" y="619" width="80" height="30" as="geometry" />
        </mxCell>
      </root>
    </mxGraphModel>
  </diagram>
</mxfile>
